<mxfile host="app.diagrams.net" agent="Mozilla/5.0 (Windows NT 10.0; Win64; x64) AppleWebKit/537.36 (KHTML, like Gecko) Chrome/140.0.0.0 Safari/537.36" version="28.2.0">
  <diagram name="Страница — 1" id="RdbqSsO17W-tyzHB6JUH">
    <mxGraphModel dx="2316" dy="1267" grid="1" gridSize="10" guides="1" tooltips="1" connect="1" arrows="1" fold="1" page="1" pageScale="1" pageWidth="827" pageHeight="1169" math="0" shadow="0">
      <root>
        <mxCell id="0" />
        <mxCell id="1" parent="0" />
        <mxCell id="EFkJIvtMeG4hPt4kGsBE-17" style="edgeStyle=orthogonalEdgeStyle;rounded=0;orthogonalLoop=1;jettySize=auto;html=1;exitX=0.5;exitY=0;exitDx=0;exitDy=0;" edge="1" parent="1" source="EFkJIvtMeG4hPt4kGsBE-1" target="EFkJIvtMeG4hPt4kGsBE-16">
          <mxGeometry relative="1" as="geometry" />
        </mxCell>
        <mxCell id="EFkJIvtMeG4hPt4kGsBE-27" style="edgeStyle=orthogonalEdgeStyle;rounded=0;orthogonalLoop=1;jettySize=auto;html=1;exitX=0;exitY=0.5;exitDx=0;exitDy=0;shape=wire;dashed=1;endArrow=none;endFill=0;" edge="1" parent="1" source="EFkJIvtMeG4hPt4kGsBE-1" target="EFkJIvtMeG4hPt4kGsBE-2">
          <mxGeometry relative="1" as="geometry" />
        </mxCell>
        <mxCell id="EFkJIvtMeG4hPt4kGsBE-1" value="склад" style="rounded=0;whiteSpace=wrap;html=1;" vertex="1" parent="1">
          <mxGeometry x="540" y="760" width="120" height="60" as="geometry" />
        </mxCell>
        <mxCell id="EFkJIvtMeG4hPt4kGsBE-2" value="количество товара" style="ellipse;whiteSpace=wrap;html=1;" vertex="1" parent="1">
          <mxGeometry x="354" y="750" width="120" height="80" as="geometry" />
        </mxCell>
        <mxCell id="EFkJIvtMeG4hPt4kGsBE-3" value="наименование товара" style="ellipse;whiteSpace=wrap;html=1;" vertex="1" parent="1">
          <mxGeometry x="220" y="320" width="120" height="80" as="geometry" />
        </mxCell>
        <mxCell id="EFkJIvtMeG4hPt4kGsBE-4" value="количество товара" style="ellipse;whiteSpace=wrap;html=1;" vertex="1" parent="1">
          <mxGeometry x="390" y="320" width="120" height="80" as="geometry" />
        </mxCell>
        <mxCell id="EFkJIvtMeG4hPt4kGsBE-32" style="edgeStyle=orthogonalEdgeStyle;rounded=0;orthogonalLoop=1;jettySize=auto;html=1;exitX=0;exitY=0.5;exitDx=0;exitDy=0;" edge="1" parent="1" source="EFkJIvtMeG4hPt4kGsBE-5" target="EFkJIvtMeG4hPt4kGsBE-7">
          <mxGeometry relative="1" as="geometry" />
        </mxCell>
        <mxCell id="EFkJIvtMeG4hPt4kGsBE-5" value="товар" style="rounded=0;whiteSpace=wrap;html=1;" vertex="1" parent="1">
          <mxGeometry x="540" y="450" width="120" height="60" as="geometry" />
        </mxCell>
        <mxCell id="EFkJIvtMeG4hPt4kGsBE-6" value="срок годности" style="ellipse;whiteSpace=wrap;html=1;" vertex="1" parent="1">
          <mxGeometry x="390" y="540" width="120" height="80" as="geometry" />
        </mxCell>
        <mxCell id="EFkJIvtMeG4hPt4kGsBE-7" value="стоимость товара" style="ellipse;whiteSpace=wrap;html=1;" vertex="1" parent="1">
          <mxGeometry x="220" y="540" width="120" height="80" as="geometry" />
        </mxCell>
        <mxCell id="EFkJIvtMeG4hPt4kGsBE-21" style="edgeStyle=orthogonalEdgeStyle;rounded=0;orthogonalLoop=1;jettySize=auto;html=1;" edge="1" parent="1" source="EFkJIvtMeG4hPt4kGsBE-8" target="EFkJIvtMeG4hPt4kGsBE-20">
          <mxGeometry relative="1" as="geometry" />
        </mxCell>
        <mxCell id="EFkJIvtMeG4hPt4kGsBE-8" value="поставщик" style="rounded=0;whiteSpace=wrap;html=1;" vertex="1" parent="1">
          <mxGeometry x="1020" y="310" width="120" height="60" as="geometry" />
        </mxCell>
        <mxCell id="EFkJIvtMeG4hPt4kGsBE-9" value="наименование товара" style="ellipse;whiteSpace=wrap;html=1;" vertex="1" parent="1">
          <mxGeometry x="840" y="750" width="120" height="80" as="geometry" />
        </mxCell>
        <mxCell id="EFkJIvtMeG4hPt4kGsBE-10" value="количество товара в партии" style="ellipse;whiteSpace=wrap;html=1;" vertex="1" parent="1">
          <mxGeometry x="1140" y="750" width="120" height="80" as="geometry" />
        </mxCell>
        <mxCell id="EFkJIvtMeG4hPt4kGsBE-11" value="срок годности" style="ellipse;whiteSpace=wrap;html=1;" vertex="1" parent="1">
          <mxGeometry x="990" y="750" width="120" height="80" as="geometry" />
        </mxCell>
        <mxCell id="EFkJIvtMeG4hPt4kGsBE-12" value="стоимость партии" style="ellipse;whiteSpace=wrap;html=1;" vertex="1" parent="1">
          <mxGeometry x="1110" y="190" width="120" height="80" as="geometry" />
        </mxCell>
        <mxCell id="EFkJIvtMeG4hPt4kGsBE-13" value="количество партий" style="ellipse;whiteSpace=wrap;html=1;" vertex="1" parent="1">
          <mxGeometry x="940" y="190" width="120" height="80" as="geometry" />
        </mxCell>
        <mxCell id="EFkJIvtMeG4hPt4kGsBE-15" value="партия товара" style="rounded=0;whiteSpace=wrap;html=1;" vertex="1" parent="1">
          <mxGeometry x="990" y="630" width="120" height="60" as="geometry" />
        </mxCell>
        <mxCell id="EFkJIvtMeG4hPt4kGsBE-18" style="edgeStyle=orthogonalEdgeStyle;rounded=0;orthogonalLoop=1;jettySize=auto;html=1;exitX=0.5;exitY=0;exitDx=0;exitDy=0;" edge="1" parent="1" source="EFkJIvtMeG4hPt4kGsBE-16" target="EFkJIvtMeG4hPt4kGsBE-5">
          <mxGeometry relative="1" as="geometry" />
        </mxCell>
        <mxCell id="EFkJIvtMeG4hPt4kGsBE-16" value="содержит" style="rhombus;whiteSpace=wrap;html=1;" vertex="1" parent="1">
          <mxGeometry x="560" y="575" width="80" height="80" as="geometry" />
        </mxCell>
        <mxCell id="EFkJIvtMeG4hPt4kGsBE-22" style="edgeStyle=orthogonalEdgeStyle;rounded=0;orthogonalLoop=1;jettySize=auto;html=1;" edge="1" parent="1" source="EFkJIvtMeG4hPt4kGsBE-20" target="EFkJIvtMeG4hPt4kGsBE-15">
          <mxGeometry relative="1" as="geometry" />
        </mxCell>
        <mxCell id="EFkJIvtMeG4hPt4kGsBE-20" value="поставляет" style="rhombus;whiteSpace=wrap;html=1;" vertex="1" parent="1">
          <mxGeometry x="1020" y="485" width="80" height="80" as="geometry" />
        </mxCell>
        <mxCell id="EFkJIvtMeG4hPt4kGsBE-25" style="edgeStyle=orthogonalEdgeStyle;rounded=0;orthogonalLoop=1;jettySize=auto;html=1;exitX=0.5;exitY=0;exitDx=0;exitDy=0;" edge="1" parent="1" source="EFkJIvtMeG4hPt4kGsBE-23" target="EFkJIvtMeG4hPt4kGsBE-24">
          <mxGeometry relative="1" as="geometry" />
        </mxCell>
        <mxCell id="EFkJIvtMeG4hPt4kGsBE-23" value="магазин" style="rounded=0;whiteSpace=wrap;html=1;" vertex="1" parent="1">
          <mxGeometry x="784" y="410" width="120" height="60" as="geometry" />
        </mxCell>
        <mxCell id="EFkJIvtMeG4hPt4kGsBE-26" style="edgeStyle=orthogonalEdgeStyle;rounded=0;orthogonalLoop=1;jettySize=auto;html=1;exitX=0;exitY=0.5;exitDx=0;exitDy=0;" edge="1" parent="1" source="EFkJIvtMeG4hPt4kGsBE-24" target="EFkJIvtMeG4hPt4kGsBE-5">
          <mxGeometry relative="1" as="geometry" />
        </mxCell>
        <mxCell id="EFkJIvtMeG4hPt4kGsBE-24" value="продаёт" style="rhombus;whiteSpace=wrap;html=1;" vertex="1" parent="1">
          <mxGeometry x="804" y="290" width="80" height="80" as="geometry" />
        </mxCell>
        <mxCell id="EFkJIvtMeG4hPt4kGsBE-28" style="edgeStyle=orthogonalEdgeStyle;rounded=0;orthogonalLoop=1;jettySize=auto;html=1;shape=wire;dashed=1;endArrow=none;endFill=0;" edge="1" parent="1" source="EFkJIvtMeG4hPt4kGsBE-5" target="EFkJIvtMeG4hPt4kGsBE-3">
          <mxGeometry relative="1" as="geometry">
            <mxPoint x="390" y="350" as="sourcePoint" />
            <mxPoint x="340" y="350" as="targetPoint" />
          </mxGeometry>
        </mxCell>
        <mxCell id="EFkJIvtMeG4hPt4kGsBE-29" style="edgeStyle=orthogonalEdgeStyle;rounded=0;orthogonalLoop=1;jettySize=auto;html=1;shape=wire;dashed=1;endArrow=none;endFill=0;" edge="1" parent="1" source="EFkJIvtMeG4hPt4kGsBE-5" target="EFkJIvtMeG4hPt4kGsBE-4">
          <mxGeometry relative="1" as="geometry">
            <mxPoint x="690" y="270" as="sourcePoint" />
            <mxPoint x="640" y="270" as="targetPoint" />
          </mxGeometry>
        </mxCell>
        <mxCell id="EFkJIvtMeG4hPt4kGsBE-30" style="edgeStyle=orthogonalEdgeStyle;rounded=0;orthogonalLoop=1;jettySize=auto;html=1;shape=wire;dashed=1;endArrow=none;endFill=0;" edge="1" parent="1" source="EFkJIvtMeG4hPt4kGsBE-5" target="EFkJIvtMeG4hPt4kGsBE-6">
          <mxGeometry relative="1" as="geometry">
            <mxPoint x="750" y="270" as="sourcePoint" />
            <mxPoint x="700" y="270" as="targetPoint" />
          </mxGeometry>
        </mxCell>
        <mxCell id="EFkJIvtMeG4hPt4kGsBE-33" style="edgeStyle=orthogonalEdgeStyle;rounded=0;orthogonalLoop=1;jettySize=auto;html=1;shape=wire;dashed=1;endArrow=none;endFill=0;" edge="1" parent="1" source="EFkJIvtMeG4hPt4kGsBE-8" target="EFkJIvtMeG4hPt4kGsBE-12">
          <mxGeometry relative="1" as="geometry">
            <mxPoint x="1030" y="700" as="sourcePoint" />
            <mxPoint x="980" y="700" as="targetPoint" />
          </mxGeometry>
        </mxCell>
        <mxCell id="EFkJIvtMeG4hPt4kGsBE-34" style="edgeStyle=orthogonalEdgeStyle;rounded=0;orthogonalLoop=1;jettySize=auto;html=1;shape=wire;dashed=1;endArrow=none;endFill=0;" edge="1" parent="1" source="EFkJIvtMeG4hPt4kGsBE-13" target="EFkJIvtMeG4hPt4kGsBE-8">
          <mxGeometry relative="1" as="geometry">
            <mxPoint x="1010" y="690" as="sourcePoint" />
            <mxPoint x="960" y="690" as="targetPoint" />
          </mxGeometry>
        </mxCell>
        <mxCell id="EFkJIvtMeG4hPt4kGsBE-35" style="edgeStyle=orthogonalEdgeStyle;rounded=0;orthogonalLoop=1;jettySize=auto;html=1;shape=wire;dashed=1;endArrow=none;endFill=0;" edge="1" parent="1" source="EFkJIvtMeG4hPt4kGsBE-15" target="EFkJIvtMeG4hPt4kGsBE-10">
          <mxGeometry relative="1" as="geometry">
            <mxPoint x="1200" y="640" as="sourcePoint" />
            <mxPoint x="1150" y="640" as="targetPoint" />
          </mxGeometry>
        </mxCell>
        <mxCell id="EFkJIvtMeG4hPt4kGsBE-36" style="edgeStyle=orthogonalEdgeStyle;rounded=0;orthogonalLoop=1;jettySize=auto;html=1;shape=wire;dashed=1;endArrow=none;endFill=0;" edge="1" parent="1" source="EFkJIvtMeG4hPt4kGsBE-15" target="EFkJIvtMeG4hPt4kGsBE-9">
          <mxGeometry relative="1" as="geometry">
            <mxPoint x="1110" y="630" as="sourcePoint" />
            <mxPoint x="1060" y="630" as="targetPoint" />
          </mxGeometry>
        </mxCell>
        <mxCell id="EFkJIvtMeG4hPt4kGsBE-37" style="edgeStyle=orthogonalEdgeStyle;rounded=0;orthogonalLoop=1;jettySize=auto;html=1;shape=wire;dashed=1;endArrow=none;endFill=0;" edge="1" parent="1" source="EFkJIvtMeG4hPt4kGsBE-11" target="EFkJIvtMeG4hPt4kGsBE-15">
          <mxGeometry relative="1" as="geometry">
            <mxPoint x="1160" y="510" as="sourcePoint" />
            <mxPoint x="1110" y="510" as="targetPoint" />
          </mxGeometry>
        </mxCell>
      </root>
    </mxGraphModel>
  </diagram>
</mxfile>
